# xmcd CD database file generated by OrangeCD 5.1
#
# Track frame offsets:
#	150
#	12802
#	27155
#	43939
#	59062
#	74216
#	93864
#	108966
#	124136
#	139958
#	153361
#	167696
#	185920
#	204875
#	226084
#	245353
#	261518
#	278123
#	297398
#	314625
#
# Disc length: 4379 seconds
#
# Revision: 0
# Processed by: cddbd v1.4PL0 Copyright (c) Steve Scherf et al.
# Submitted via: OrangeCD 5.1
#
DISCID=31111914
DTITLE=The Bellamy Brothers - Greatest Hits: The Ultimate Collection from 1976 
DTITLE=to 2000
DYEAR=2000
DGENRE=Country
TTITLE0=Let Your Love Flow
TTITLE1=If I Said You Had A Beautiful Body
TTITLE2=Santa Fe
TTITLE3=You'll Never Be Sorry
TTITLE4=I Could Be Persuaded
TTITLE5=She Don't Know That She's Perfect
TTITLE6=On A Summer Night
TTITLE7=Can I Come Home To You
TTITLE8=Rip Off The Knob
TTITLE9=Not
TTITLE10=Big Hair
TTITLE11=Old Hippie (Sequel)
TTITLE12=She's Awesome
TTITLE13=Shine Them Buckles
TTITLE14=Hard Way To Make An Easy Livin'
TTITLE15=Catahoula
TTITLE16=Over The Line
TTITLE17=Almost Jamaica
TTITLE18=Some Broken Hearts
TTITLE19=The Ex-files
EXTD=
EXTT0=
EXTT1=
EXTT2=
EXTT3=
EXTT4=
EXTT5=
EXTT6=
EXTT7=
EXTT8=
EXTT9=
EXTT10=
EXTT11=
EXTT12=
EXTT13=
EXTT14=
EXTT15=
EXTT16=
EXTT17=
EXTT18=
EXTT19=
PLAYORDER=
